<mxfile host="Electron" modified="2023-05-01T13:57:01.014Z" agent="Mozilla/5.0 (Windows NT 10.0; Win64; x64) AppleWebKit/537.36 (KHTML, like Gecko) draw.io/21.1.2 Chrome/106.0.5249.199 Electron/21.4.3 Safari/537.36" etag="yslX5JX97elzDOg2x_S1" version="21.1.2" type="device">
  <diagram name="Page-1" id="-BICjRlj_CF2rf6ecwjt">
    <mxGraphModel dx="2069" dy="722" grid="1" gridSize="10" guides="1" tooltips="1" connect="1" arrows="1" fold="1" page="1" pageScale="1" pageWidth="850" pageHeight="1100" math="0" shadow="0">
      <root>
        <mxCell id="0" />
        <mxCell id="1" parent="0" />
        <mxCell id="ekgnCPpDS0l8y5VPsCR7-15" style="rounded=0;orthogonalLoop=1;jettySize=auto;html=1;exitX=0;exitY=0;exitDx=120;exitDy=42.5;exitPerimeter=0;endArrow=none;endFill=0;dashed=1;" edge="1" parent="1" source="ekgnCPpDS0l8y5VPsCR7-14" target="huLvErs1DPyE6HO1u9oY-1">
          <mxGeometry relative="1" as="geometry" />
        </mxCell>
        <mxCell id="bsRdrqoQIyki98Pr8Une-4" value="User" style="swimlane;fontStyle=1;align=center;verticalAlign=top;childLayout=stackLayout;horizontal=1;startSize=26;horizontalStack=0;resizeParent=1;resizeParentMax=0;resizeLast=0;collapsible=1;marginBottom=0;whiteSpace=wrap;html=1;" parent="1" vertex="1">
          <mxGeometry x="-370" y="956" width="180" height="320" as="geometry" />
        </mxCell>
        <mxCell id="bsRdrqoQIyki98Pr8Une-5" value="+ userId: Int" style="text;strokeColor=none;fillColor=none;align=left;verticalAlign=top;spacingLeft=4;spacingRight=4;overflow=hidden;rotatable=0;points=[[0,0.5],[1,0.5]];portConstraint=eastwest;whiteSpace=wrap;html=1;" parent="bsRdrqoQIyki98Pr8Une-4" vertex="1">
          <mxGeometry y="26" width="180" height="26" as="geometry" />
        </mxCell>
        <mxCell id="huLvErs1DPyE6HO1u9oY-28" value="+ borrowdBooks: List&amp;lt;Book&amp;gt;" style="text;strokeColor=none;fillColor=none;align=left;verticalAlign=top;spacingLeft=4;spacingRight=4;overflow=hidden;rotatable=0;points=[[0,0.5],[1,0.5]];portConstraint=eastwest;whiteSpace=wrap;html=1;" parent="bsRdrqoQIyki98Pr8Une-4" vertex="1">
          <mxGeometry y="52" width="180" height="26" as="geometry" />
        </mxCell>
        <mxCell id="huLvErs1DPyE6HO1u9oY-34" value="+ userId: Int" style="text;strokeColor=none;fillColor=none;align=left;verticalAlign=top;spacingLeft=4;spacingRight=4;overflow=hidden;rotatable=0;points=[[0,0.5],[1,0.5]];portConstraint=eastwest;whiteSpace=wrap;html=1;" parent="bsRdrqoQIyki98Pr8Une-4" vertex="1">
          <mxGeometry y="78" width="180" height="26" as="geometry" />
        </mxCell>
        <mxCell id="huLvErs1DPyE6HO1u9oY-29" value="+ userId: Int" style="text;strokeColor=none;fillColor=none;align=left;verticalAlign=top;spacingLeft=4;spacingRight=4;overflow=hidden;rotatable=0;points=[[0,0.5],[1,0.5]];portConstraint=eastwest;whiteSpace=wrap;html=1;" parent="bsRdrqoQIyki98Pr8Une-4" vertex="1">
          <mxGeometry y="104" width="180" height="26" as="geometry" />
        </mxCell>
        <mxCell id="huLvErs1DPyE6HO1u9oY-31" value="+ userId: Int" style="text;strokeColor=none;fillColor=none;align=left;verticalAlign=top;spacingLeft=4;spacingRight=4;overflow=hidden;rotatable=0;points=[[0,0.5],[1,0.5]];portConstraint=eastwest;whiteSpace=wrap;html=1;" parent="bsRdrqoQIyki98Pr8Une-4" vertex="1">
          <mxGeometry y="130" width="180" height="26" as="geometry" />
        </mxCell>
        <mxCell id="huLvErs1DPyE6HO1u9oY-30" value="+ userId: Int" style="text;strokeColor=none;fillColor=none;align=left;verticalAlign=top;spacingLeft=4;spacingRight=4;overflow=hidden;rotatable=0;points=[[0,0.5],[1,0.5]];portConstraint=eastwest;whiteSpace=wrap;html=1;" parent="bsRdrqoQIyki98Pr8Une-4" vertex="1">
          <mxGeometry y="156" width="180" height="26" as="geometry" />
        </mxCell>
        <mxCell id="huLvErs1DPyE6HO1u9oY-35" value="+ userId: Int" style="text;strokeColor=none;fillColor=none;align=left;verticalAlign=top;spacingLeft=4;spacingRight=4;overflow=hidden;rotatable=0;points=[[0,0.5],[1,0.5]];portConstraint=eastwest;whiteSpace=wrap;html=1;" parent="bsRdrqoQIyki98Pr8Une-4" vertex="1">
          <mxGeometry y="182" width="180" height="26" as="geometry" />
        </mxCell>
        <mxCell id="huLvErs1DPyE6HO1u9oY-36" value="+ userId: Int" style="text;strokeColor=none;fillColor=none;align=left;verticalAlign=top;spacingLeft=4;spacingRight=4;overflow=hidden;rotatable=0;points=[[0,0.5],[1,0.5]];portConstraint=eastwest;whiteSpace=wrap;html=1;" parent="bsRdrqoQIyki98Pr8Une-4" vertex="1">
          <mxGeometry y="208" width="180" height="26" as="geometry" />
        </mxCell>
        <mxCell id="bsRdrqoQIyki98Pr8Une-6" value="" style="line;strokeWidth=1;fillColor=none;align=left;verticalAlign=middle;spacingTop=-1;spacingLeft=3;spacingRight=3;rotatable=0;labelPosition=right;points=[];portConstraint=eastwest;strokeColor=inherit;" parent="bsRdrqoQIyki98Pr8Une-4" vertex="1">
          <mxGeometry y="234" width="180" height="8" as="geometry" />
        </mxCell>
        <mxCell id="bsRdrqoQIyki98Pr8Une-7" value="+ borrow(Borrowable)" style="text;strokeColor=none;fillColor=none;align=left;verticalAlign=top;spacingLeft=4;spacingRight=4;overflow=hidden;rotatable=0;points=[[0,0.5],[1,0.5]];portConstraint=eastwest;whiteSpace=wrap;html=1;" parent="bsRdrqoQIyki98Pr8Une-4" vertex="1">
          <mxGeometry y="242" width="180" height="26" as="geometry" />
        </mxCell>
        <mxCell id="bsRdrqoQIyki98Pr8Une-46" value="+ request(Request)" style="text;strokeColor=none;fillColor=none;align=left;verticalAlign=top;spacingLeft=4;spacingRight=4;overflow=hidden;rotatable=0;points=[[0,0.5],[1,0.5]];portConstraint=eastwest;whiteSpace=wrap;html=1;" parent="bsRdrqoQIyki98Pr8Une-4" vertex="1">
          <mxGeometry y="268" width="180" height="26" as="geometry" />
        </mxCell>
        <mxCell id="G7ZctmOGvD5jez6X7ehJ-20" value="+ request(Request)" style="text;strokeColor=none;fillColor=none;align=left;verticalAlign=top;spacingLeft=4;spacingRight=4;overflow=hidden;rotatable=0;points=[[0,0.5],[1,0.5]];portConstraint=eastwest;whiteSpace=wrap;html=1;" parent="bsRdrqoQIyki98Pr8Une-4" vertex="1">
          <mxGeometry y="294" width="180" height="26" as="geometry" />
        </mxCell>
        <mxCell id="bsRdrqoQIyki98Pr8Une-8" value="Admin" style="swimlane;fontStyle=1;align=center;verticalAlign=top;childLayout=stackLayout;horizontal=1;startSize=26;horizontalStack=0;resizeParent=1;resizeParentMax=0;resizeLast=0;collapsible=1;marginBottom=0;whiteSpace=wrap;html=1;" parent="1" vertex="1">
          <mxGeometry x="55" y="1030" width="280" height="182" as="geometry" />
        </mxCell>
        <mxCell id="bsRdrqoQIyki98Pr8Une-9" value="+ adminId: Int" style="text;strokeColor=none;fillColor=none;align=left;verticalAlign=top;spacingLeft=4;spacingRight=4;overflow=hidden;rotatable=0;points=[[0,0.5],[1,0.5]];portConstraint=eastwest;whiteSpace=wrap;html=1;" parent="bsRdrqoQIyki98Pr8Une-8" vertex="1">
          <mxGeometry y="26" width="280" height="26" as="geometry" />
        </mxCell>
        <mxCell id="bsRdrqoQIyki98Pr8Une-11" value="+ acceptRequest(Request): type" style="text;strokeColor=none;fillColor=none;align=left;verticalAlign=top;spacingLeft=4;spacingRight=4;overflow=hidden;rotatable=0;points=[[0,0.5],[1,0.5]];portConstraint=eastwest;whiteSpace=wrap;html=1;" parent="bsRdrqoQIyki98Pr8Une-8" vertex="1">
          <mxGeometry y="52" width="280" height="26" as="geometry" />
        </mxCell>
        <mxCell id="G7ZctmOGvD5jez6X7ehJ-37" value="+ acceptRequest(Acceptable): type" style="text;strokeColor=none;fillColor=none;align=left;verticalAlign=top;spacingLeft=4;spacingRight=4;overflow=hidden;rotatable=0;points=[[0,0.5],[1,0.5]];portConstraint=eastwest;whiteSpace=wrap;html=1;" parent="bsRdrqoQIyki98Pr8Une-8" vertex="1">
          <mxGeometry y="78" width="280" height="26" as="geometry" />
        </mxCell>
        <mxCell id="G7ZctmOGvD5jez6X7ehJ-1" value="+ create(Creatable)" style="text;strokeColor=none;fillColor=none;align=left;verticalAlign=top;spacingLeft=4;spacingRight=4;overflow=hidden;rotatable=0;points=[[0,0.5],[1,0.5]];portConstraint=eastwest;whiteSpace=wrap;html=1;" parent="bsRdrqoQIyki98Pr8Une-8" vertex="1">
          <mxGeometry y="104" width="280" height="26" as="geometry" />
        </mxCell>
        <mxCell id="G7ZctmOGvD5jez6X7ehJ-2" value="+ edit(Editable)" style="text;strokeColor=none;fillColor=none;align=left;verticalAlign=top;spacingLeft=4;spacingRight=4;overflow=hidden;rotatable=0;points=[[0,0.5],[1,0.5]];portConstraint=eastwest;whiteSpace=wrap;html=1;" parent="bsRdrqoQIyki98Pr8Une-8" vertex="1">
          <mxGeometry y="130" width="280" height="26" as="geometry" />
        </mxCell>
        <mxCell id="G7ZctmOGvD5jez6X7ehJ-3" value="+ delete(Deletable)" style="text;strokeColor=none;fillColor=none;align=left;verticalAlign=top;spacingLeft=4;spacingRight=4;overflow=hidden;rotatable=0;points=[[0,0.5],[1,0.5]];portConstraint=eastwest;whiteSpace=wrap;html=1;" parent="bsRdrqoQIyki98Pr8Une-8" vertex="1">
          <mxGeometry y="156" width="280" height="26" as="geometry" />
        </mxCell>
        <mxCell id="huLvErs1DPyE6HO1u9oY-8" value="" style="endArrow=none;html=1;rounded=0;exitX=0.002;exitY=1.015;exitDx=0;exitDy=0;exitPerimeter=0;entryX=0.999;entryY=1.052;entryDx=0;entryDy=0;entryPerimeter=0;" parent="bsRdrqoQIyki98Pr8Une-8" source="bsRdrqoQIyki98Pr8Une-9" target="bsRdrqoQIyki98Pr8Une-9" edge="1">
          <mxGeometry width="50" height="50" relative="1" as="geometry">
            <mxPoint x="175" y="170" as="sourcePoint" />
            <mxPoint x="225" y="120" as="targetPoint" />
          </mxGeometry>
        </mxCell>
        <mxCell id="bsRdrqoQIyki98Pr8Une-18" value="Book" style="swimlane;fontStyle=1;align=center;verticalAlign=top;childLayout=stackLayout;horizontal=1;startSize=26;horizontalStack=0;resizeParent=1;resizeParentMax=0;resizeLast=0;collapsible=1;marginBottom=0;whiteSpace=wrap;html=1;" parent="1" vertex="1">
          <mxGeometry x="-220" y="1720" width="160" height="252" as="geometry" />
        </mxCell>
        <mxCell id="bsRdrqoQIyki98Pr8Une-19" value="+ bookId: Int" style="text;strokeColor=none;fillColor=none;align=left;verticalAlign=top;spacingLeft=4;spacingRight=4;overflow=hidden;rotatable=0;points=[[0,0.5],[1,0.5]];portConstraint=eastwest;whiteSpace=wrap;html=1;" parent="bsRdrqoQIyki98Pr8Une-18" vertex="1">
          <mxGeometry y="26" width="160" height="24" as="geometry" />
        </mxCell>
        <mxCell id="huLvErs1DPyE6HO1u9oY-12" value="+ isbn: Int" style="text;strokeColor=none;fillColor=none;align=left;verticalAlign=top;spacingLeft=4;spacingRight=4;overflow=hidden;rotatable=0;points=[[0,0.5],[1,0.5]];portConstraint=eastwest;whiteSpace=wrap;html=1;" parent="bsRdrqoQIyki98Pr8Une-18" vertex="1">
          <mxGeometry y="50" width="160" height="24" as="geometry" />
        </mxCell>
        <mxCell id="huLvErs1DPyE6HO1u9oY-11" value="+ title: String" style="text;strokeColor=none;fillColor=none;align=left;verticalAlign=top;spacingLeft=4;spacingRight=4;overflow=hidden;rotatable=0;points=[[0,0.5],[1,0.5]];portConstraint=eastwest;whiteSpace=wrap;html=1;" parent="bsRdrqoQIyki98Pr8Une-18" vertex="1">
          <mxGeometry y="74" width="160" height="24" as="geometry" />
        </mxCell>
        <mxCell id="huLvErs1DPyE6HO1u9oY-13" value="+ authorName: String" style="text;strokeColor=none;fillColor=none;align=left;verticalAlign=top;spacingLeft=4;spacingRight=4;overflow=hidden;rotatable=0;points=[[0,0.5],[1,0.5]];portConstraint=eastwest;whiteSpace=wrap;html=1;" parent="bsRdrqoQIyki98Pr8Une-18" vertex="1">
          <mxGeometry y="98" width="160" height="24" as="geometry" />
        </mxCell>
        <mxCell id="huLvErs1DPyE6HO1u9oY-14" value="+ rackNumber: Int" style="text;strokeColor=none;fillColor=none;align=left;verticalAlign=top;spacingLeft=4;spacingRight=4;overflow=hidden;rotatable=0;points=[[0,0.5],[1,0.5]];portConstraint=eastwest;whiteSpace=wrap;html=1;" parent="bsRdrqoQIyki98Pr8Une-18" vertex="1">
          <mxGeometry y="122" width="160" height="24" as="geometry" />
        </mxCell>
        <mxCell id="huLvErs1DPyE6HO1u9oY-15" value="+ photeUrl: String" style="text;strokeColor=none;fillColor=none;align=left;verticalAlign=top;spacingLeft=4;spacingRight=4;overflow=hidden;rotatable=0;points=[[0,0.5],[1,0.5]];portConstraint=eastwest;whiteSpace=wrap;html=1;" parent="bsRdrqoQIyki98Pr8Une-18" vertex="1">
          <mxGeometry y="146" width="160" height="24" as="geometry" />
        </mxCell>
        <mxCell id="huLvErs1DPyE6HO1u9oY-16" value="+ catigory: BookCatigory" style="text;strokeColor=none;fillColor=none;align=left;verticalAlign=top;spacingLeft=4;spacingRight=4;overflow=hidden;rotatable=0;points=[[0,0.5],[1,0.5]];portConstraint=eastwest;whiteSpace=wrap;html=1;" parent="bsRdrqoQIyki98Pr8Une-18" vertex="1">
          <mxGeometry y="170" width="160" height="24" as="geometry" />
        </mxCell>
        <mxCell id="huLvErs1DPyE6HO1u9oY-21" value="+ state: BookState" style="text;strokeColor=none;fillColor=none;align=left;verticalAlign=top;spacingLeft=4;spacingRight=4;overflow=hidden;rotatable=0;points=[[0,0.5],[1,0.5]];portConstraint=eastwest;whiteSpace=wrap;html=1;" parent="bsRdrqoQIyki98Pr8Une-18" vertex="1">
          <mxGeometry y="194" width="160" height="24" as="geometry" />
        </mxCell>
        <mxCell id="bsRdrqoQIyki98Pr8Une-20" value="" style="line;strokeWidth=1;fillColor=none;align=left;verticalAlign=middle;spacingTop=-1;spacingLeft=3;spacingRight=3;rotatable=0;labelPosition=right;points=[];portConstraint=eastwest;strokeColor=inherit;" parent="bsRdrqoQIyki98Pr8Une-18" vertex="1">
          <mxGeometry y="218" width="160" height="8" as="geometry" />
        </mxCell>
        <mxCell id="bsRdrqoQIyki98Pr8Une-21" value="+ method(type): type" style="text;strokeColor=none;fillColor=none;align=left;verticalAlign=top;spacingLeft=4;spacingRight=4;overflow=hidden;rotatable=0;points=[[0,0.5],[1,0.5]];portConstraint=eastwest;whiteSpace=wrap;html=1;" parent="bsRdrqoQIyki98Pr8Une-18" vertex="1">
          <mxGeometry y="226" width="160" height="26" as="geometry" />
        </mxCell>
        <mxCell id="bsRdrqoQIyki98Pr8Une-25" value="«interface»&lt;br&gt;&lt;b&gt;Borrowable&lt;/b&gt;" style="html=1;whiteSpace=wrap;" parent="1" vertex="1">
          <mxGeometry y="1530" width="110" height="50" as="geometry" />
        </mxCell>
        <mxCell id="bsRdrqoQIyki98Pr8Une-39" value="&lt;p style=&quot;margin:0px;margin-top:4px;text-align:center;&quot;&gt;&lt;i&gt;&amp;lt;&amp;lt;Interface&amp;gt;&amp;gt;&lt;/i&gt;&lt;br&gt;&lt;b&gt;Loggable&lt;/b&gt;&lt;/p&gt;&lt;p style=&quot;margin:0px;margin-top:4px;text-align:center;&quot;&gt;&lt;b&gt;&lt;br&gt;&lt;/b&gt;&lt;/p&gt;&lt;p style=&quot;margin:0px;margin-left:4px;&quot;&gt;&lt;span style=&quot;background-color: initial;&quot;&gt;+ login(Type): Type&lt;/span&gt;&lt;br&gt;&lt;/p&gt;&lt;p style=&quot;margin:0px;margin-left:4px;&quot;&gt;+ logout(Type, Type): Type&lt;/p&gt;" style="verticalAlign=top;align=left;overflow=fill;fontSize=12;fontFamily=Helvetica;html=1;whiteSpace=wrap;" parent="1" vertex="1">
          <mxGeometry x="-123" y="570" width="190" height="100" as="geometry" />
        </mxCell>
        <mxCell id="bsRdrqoQIyki98Pr8Une-49" value="Regestration Request" style="swimlane;fontStyle=1;align=center;verticalAlign=top;childLayout=stackLayout;horizontal=1;startSize=26;horizontalStack=0;resizeParent=1;resizeParentMax=0;resizeLast=0;collapsible=1;marginBottom=0;whiteSpace=wrap;html=1;" parent="1" vertex="1">
          <mxGeometry x="50" y="1860" width="200" height="242" as="geometry" />
        </mxCell>
        <mxCell id="bsRdrqoQIyki98Pr8Une-50" value="+ registrationRequestId: type" style="text;strokeColor=none;fillColor=none;align=left;verticalAlign=top;spacingLeft=4;spacingRight=4;overflow=hidden;rotatable=0;points=[[0,0.5],[1,0.5]];portConstraint=eastwest;whiteSpace=wrap;html=1;" parent="bsRdrqoQIyki98Pr8Une-49" vertex="1">
          <mxGeometry y="26" width="200" height="26" as="geometry" />
        </mxCell>
        <mxCell id="huLvErs1DPyE6HO1u9oY-37" value="+ userEmail: String" style="text;strokeColor=none;fillColor=none;align=left;verticalAlign=top;spacingLeft=4;spacingRight=4;overflow=hidden;rotatable=0;points=[[0,0.5],[1,0.5]];portConstraint=eastwest;whiteSpace=wrap;html=1;" parent="bsRdrqoQIyki98Pr8Une-49" vertex="1">
          <mxGeometry y="52" width="200" height="26" as="geometry" />
        </mxCell>
        <mxCell id="huLvErs1DPyE6HO1u9oY-38" value="+ timeRequested: Time" style="text;strokeColor=none;fillColor=none;align=left;verticalAlign=top;spacingLeft=4;spacingRight=4;overflow=hidden;rotatable=0;points=[[0,0.5],[1,0.5]];portConstraint=eastwest;whiteSpace=wrap;html=1;" parent="bsRdrqoQIyki98Pr8Une-49" vertex="1">
          <mxGeometry y="78" width="200" height="26" as="geometry" />
        </mxCell>
        <mxCell id="huLvErs1DPyE6HO1u9oY-39" value="+ field: type" style="text;strokeColor=none;fillColor=none;align=left;verticalAlign=top;spacingLeft=4;spacingRight=4;overflow=hidden;rotatable=0;points=[[0,0.5],[1,0.5]];portConstraint=eastwest;whiteSpace=wrap;html=1;" parent="bsRdrqoQIyki98Pr8Une-49" vertex="1">
          <mxGeometry y="104" width="200" height="26" as="geometry" />
        </mxCell>
        <mxCell id="huLvErs1DPyE6HO1u9oY-40" value="+ field: type" style="text;strokeColor=none;fillColor=none;align=left;verticalAlign=top;spacingLeft=4;spacingRight=4;overflow=hidden;rotatable=0;points=[[0,0.5],[1,0.5]];portConstraint=eastwest;whiteSpace=wrap;html=1;" parent="bsRdrqoQIyki98Pr8Une-49" vertex="1">
          <mxGeometry y="130" width="200" height="26" as="geometry" />
        </mxCell>
        <mxCell id="huLvErs1DPyE6HO1u9oY-41" value="+ field: type" style="text;strokeColor=none;fillColor=none;align=left;verticalAlign=top;spacingLeft=4;spacingRight=4;overflow=hidden;rotatable=0;points=[[0,0.5],[1,0.5]];portConstraint=eastwest;whiteSpace=wrap;html=1;" parent="bsRdrqoQIyki98Pr8Une-49" vertex="1">
          <mxGeometry y="156" width="200" height="26" as="geometry" />
        </mxCell>
        <mxCell id="huLvErs1DPyE6HO1u9oY-42" value="+ field: type" style="text;strokeColor=none;fillColor=none;align=left;verticalAlign=top;spacingLeft=4;spacingRight=4;overflow=hidden;rotatable=0;points=[[0,0.5],[1,0.5]];portConstraint=eastwest;whiteSpace=wrap;html=1;" parent="bsRdrqoQIyki98Pr8Une-49" vertex="1">
          <mxGeometry y="182" width="200" height="26" as="geometry" />
        </mxCell>
        <mxCell id="bsRdrqoQIyki98Pr8Une-51" value="" style="line;strokeWidth=1;fillColor=none;align=left;verticalAlign=middle;spacingTop=-1;spacingLeft=3;spacingRight=3;rotatable=0;labelPosition=right;points=[];portConstraint=eastwest;strokeColor=inherit;" parent="bsRdrqoQIyki98Pr8Une-49" vertex="1">
          <mxGeometry y="208" width="200" height="8" as="geometry" />
        </mxCell>
        <mxCell id="bsRdrqoQIyki98Pr8Une-52" value="+ method(type): type" style="text;strokeColor=none;fillColor=none;align=left;verticalAlign=top;spacingLeft=4;spacingRight=4;overflow=hidden;rotatable=0;points=[[0,0.5],[1,0.5]];portConstraint=eastwest;whiteSpace=wrap;html=1;" parent="bsRdrqoQIyki98Pr8Une-49" vertex="1">
          <mxGeometry y="216" width="200" height="26" as="geometry" />
        </mxCell>
        <mxCell id="bsRdrqoQIyki98Pr8Une-53" value="Borrowing Request" style="swimlane;fontStyle=1;align=center;verticalAlign=top;childLayout=stackLayout;horizontal=1;startSize=26;horizontalStack=0;resizeParent=1;resizeParentMax=0;resizeLast=0;collapsible=1;marginBottom=0;whiteSpace=wrap;html=1;" parent="1" vertex="1">
          <mxGeometry x="280" y="1860" width="200" height="190" as="geometry" />
        </mxCell>
        <mxCell id="bsRdrqoQIyki98Pr8Une-54" value="+ borrowingRequestId: Int" style="text;strokeColor=none;fillColor=none;align=left;verticalAlign=top;spacingLeft=4;spacingRight=4;overflow=hidden;rotatable=0;points=[[0,0.5],[1,0.5]];portConstraint=eastwest;whiteSpace=wrap;html=1;" parent="bsRdrqoQIyki98Pr8Une-53" vertex="1">
          <mxGeometry y="26" width="200" height="26" as="geometry" />
        </mxCell>
        <mxCell id="huLvErs1DPyE6HO1u9oY-49" value="+ borrower: Borrower" style="text;strokeColor=none;fillColor=none;align=left;verticalAlign=top;spacingLeft=4;spacingRight=4;overflow=hidden;rotatable=0;points=[[0,0.5],[1,0.5]];portConstraint=eastwest;whiteSpace=wrap;html=1;" parent="bsRdrqoQIyki98Pr8Une-53" vertex="1">
          <mxGeometry y="52" width="200" height="26" as="geometry" />
        </mxCell>
        <mxCell id="huLvErs1DPyE6HO1u9oY-50" value="+ borrowable: Borrowable" style="text;strokeColor=none;fillColor=none;align=left;verticalAlign=top;spacingLeft=4;spacingRight=4;overflow=hidden;rotatable=0;points=[[0,0.5],[1,0.5]];portConstraint=eastwest;whiteSpace=wrap;html=1;" parent="bsRdrqoQIyki98Pr8Une-53" vertex="1">
          <mxGeometry y="78" width="200" height="26" as="geometry" />
        </mxCell>
        <mxCell id="huLvErs1DPyE6HO1u9oY-51" value="+ timeRequested: Time" style="text;strokeColor=none;fillColor=none;align=left;verticalAlign=top;spacingLeft=4;spacingRight=4;overflow=hidden;rotatable=0;points=[[0,0.5],[1,0.5]];portConstraint=eastwest;whiteSpace=wrap;html=1;" parent="bsRdrqoQIyki98Pr8Une-53" vertex="1">
          <mxGeometry y="104" width="200" height="26" as="geometry" />
        </mxCell>
        <mxCell id="huLvErs1DPyE6HO1u9oY-53" value="+ field: type" style="text;strokeColor=none;fillColor=none;align=left;verticalAlign=top;spacingLeft=4;spacingRight=4;overflow=hidden;rotatable=0;points=[[0,0.5],[1,0.5]];portConstraint=eastwest;whiteSpace=wrap;html=1;" parent="bsRdrqoQIyki98Pr8Une-53" vertex="1">
          <mxGeometry y="130" width="200" height="26" as="geometry" />
        </mxCell>
        <mxCell id="bsRdrqoQIyki98Pr8Une-55" value="" style="line;strokeWidth=1;fillColor=none;align=left;verticalAlign=middle;spacingTop=-1;spacingLeft=3;spacingRight=3;rotatable=0;labelPosition=right;points=[];portConstraint=eastwest;strokeColor=inherit;" parent="bsRdrqoQIyki98Pr8Une-53" vertex="1">
          <mxGeometry y="156" width="200" height="8" as="geometry" />
        </mxCell>
        <mxCell id="bsRdrqoQIyki98Pr8Une-56" value="+ method(type): type" style="text;strokeColor=none;fillColor=none;align=left;verticalAlign=top;spacingLeft=4;spacingRight=4;overflow=hidden;rotatable=0;points=[[0,0.5],[1,0.5]];portConstraint=eastwest;whiteSpace=wrap;html=1;" parent="bsRdrqoQIyki98Pr8Une-53" vertex="1">
          <mxGeometry y="164" width="200" height="26" as="geometry" />
        </mxCell>
        <mxCell id="bsRdrqoQIyki98Pr8Une-61" value="" style="endArrow=block;dashed=1;endFill=0;endSize=12;html=1;rounded=0;" parent="1" source="bsRdrqoQIyki98Pr8Une-18" target="bsRdrqoQIyki98Pr8Une-25" edge="1">
          <mxGeometry width="160" relative="1" as="geometry">
            <mxPoint x="-185" y="1310" as="sourcePoint" />
            <mxPoint x="-185" y="1202" as="targetPoint" />
          </mxGeometry>
        </mxCell>
        <mxCell id="bsRdrqoQIyki98Pr8Une-62" value="" style="endArrow=block;dashed=1;endFill=0;endSize=12;html=1;rounded=0;" parent="1" source="O-NyD26Ba-2kZrWU9cd6-1" target="UxZZDdhxiffH_w0Zif0F-15" edge="1">
          <mxGeometry width="160" relative="1" as="geometry">
            <mxPoint x="138" y="1320" as="sourcePoint" />
            <mxPoint x="136" y="1270" as="targetPoint" />
          </mxGeometry>
        </mxCell>
        <mxCell id="bsRdrqoQIyki98Pr8Une-65" value="" style="endArrow=block;dashed=1;endFill=0;endSize=12;html=1;rounded=0;" parent="1" source="bsRdrqoQIyki98Pr8Une-12" target="bsRdrqoQIyki98Pr8Une-39" edge="1">
          <mxGeometry width="160" relative="1" as="geometry">
            <mxPoint x="-24" y="1040" as="sourcePoint" />
            <mxPoint x="-99" y="960" as="targetPoint" />
          </mxGeometry>
        </mxCell>
        <mxCell id="G7ZctmOGvD5jez6X7ehJ-8" value="Interfaces" style="swimlane;whiteSpace=wrap;html=1;" parent="1" vertex="1">
          <mxGeometry x="540" y="1220" width="470" height="330" as="geometry" />
        </mxCell>
        <mxCell id="G7ZctmOGvD5jez6X7ehJ-12" value="Editable" style="text;html=1;align=center;verticalAlign=middle;resizable=0;points=[];autosize=1;strokeColor=#3700CC;fillColor=#6a00ff;fontColor=#ffffff;" parent="G7ZctmOGvD5jez6X7ehJ-8" vertex="1">
          <mxGeometry x="35" y="90" width="70" height="30" as="geometry" />
        </mxCell>
        <mxCell id="G7ZctmOGvD5jez6X7ehJ-11" value="Createable" style="text;html=1;align=center;verticalAlign=middle;resizable=0;points=[];autosize=1;strokeColor=#3700CC;fillColor=#6a00ff;fontColor=#ffffff;" parent="G7ZctmOGvD5jez6X7ehJ-8" vertex="1">
          <mxGeometry x="145" y="90" width="80" height="30" as="geometry" />
        </mxCell>
        <mxCell id="G7ZctmOGvD5jez6X7ehJ-13" value="Loggable" style="text;html=1;align=center;verticalAlign=middle;resizable=0;points=[];autosize=1;strokeColor=#3700CC;fillColor=#6a00ff;fontColor=#ffffff;" parent="G7ZctmOGvD5jez6X7ehJ-8" vertex="1">
          <mxGeometry x="35" y="150" width="70" height="30" as="geometry" />
        </mxCell>
        <mxCell id="G7ZctmOGvD5jez6X7ehJ-14" value="Borrowable" style="text;html=1;align=center;verticalAlign=middle;resizable=0;points=[];autosize=1;strokeColor=#3700CC;fillColor=#6a00ff;fontColor=#ffffff;" parent="G7ZctmOGvD5jez6X7ehJ-8" vertex="1">
          <mxGeometry x="145" y="40" width="80" height="30" as="geometry" />
        </mxCell>
        <mxCell id="G7ZctmOGvD5jez6X7ehJ-15" value="Deleteable" style="text;html=1;align=center;verticalAlign=middle;resizable=0;points=[];autosize=1;strokeColor=#3700CC;fillColor=#6a00ff;fontColor=#ffffff;" parent="G7ZctmOGvD5jez6X7ehJ-8" vertex="1">
          <mxGeometry x="260" y="90" width="80" height="30" as="geometry" />
        </mxCell>
        <mxCell id="G7ZctmOGvD5jez6X7ehJ-16" value="Acceptable" style="text;html=1;align=center;verticalAlign=middle;resizable=0;points=[];autosize=1;strokeColor=#3700CC;fillColor=#6a00ff;fontColor=#ffffff;" parent="G7ZctmOGvD5jez6X7ehJ-8" vertex="1">
          <mxGeometry x="30" y="210" width="80" height="30" as="geometry" />
        </mxCell>
        <mxCell id="G7ZctmOGvD5jez6X7ehJ-17" value="Request" style="text;html=1;align=center;verticalAlign=middle;resizable=0;points=[];autosize=1;strokeColor=#3700CC;fillColor=#6a00ff;fontColor=#ffffff;" parent="G7ZctmOGvD5jez6X7ehJ-8" vertex="1">
          <mxGeometry x="155" y="210" width="70" height="30" as="geometry" />
        </mxCell>
        <mxCell id="G7ZctmOGvD5jez6X7ehJ-18" value="PaymentWay" style="text;html=1;align=center;verticalAlign=middle;resizable=0;points=[];autosize=1;strokeColor=#3700CC;fillColor=#6a00ff;fontColor=#ffffff;" parent="G7ZctmOGvD5jez6X7ehJ-8" vertex="1">
          <mxGeometry x="170" y="270" width="90" height="30" as="geometry" />
        </mxCell>
        <mxCell id="G7ZctmOGvD5jez6X7ehJ-21" value="«interface»&lt;br&gt;&lt;b&gt;Creatable&lt;/b&gt;" style="html=1;whiteSpace=wrap;" parent="1" vertex="1">
          <mxGeometry x="-123" y="1530" width="110" height="50" as="geometry" />
        </mxCell>
        <mxCell id="G7ZctmOGvD5jez6X7ehJ-22" value="«interface»&lt;br&gt;&lt;b&gt;Editable&lt;/b&gt;" style="html=1;whiteSpace=wrap;" parent="1" vertex="1">
          <mxGeometry x="-390" y="1530" width="110" height="50" as="geometry" />
        </mxCell>
        <mxCell id="G7ZctmOGvD5jez6X7ehJ-23" value="«interface»&lt;br&gt;&lt;b&gt;Deletable&lt;/b&gt;" style="html=1;whiteSpace=wrap;" parent="1" vertex="1">
          <mxGeometry x="-257" y="1530" width="110" height="50" as="geometry" />
        </mxCell>
        <mxCell id="G7ZctmOGvD5jez6X7ehJ-24" value="" style="endArrow=block;dashed=1;endFill=0;endSize=12;html=1;rounded=0;" parent="1" source="bsRdrqoQIyki98Pr8Une-4" target="G7ZctmOGvD5jez6X7ehJ-21" edge="1">
          <mxGeometry width="160" relative="1" as="geometry">
            <mxPoint x="-540" y="1445" as="sourcePoint" />
            <mxPoint x="50" y="1478" as="targetPoint" />
          </mxGeometry>
        </mxCell>
        <mxCell id="G7ZctmOGvD5jez6X7ehJ-25" value="" style="endArrow=block;dashed=1;endFill=0;endSize=12;html=1;rounded=0;" parent="1" source="bsRdrqoQIyki98Pr8Une-4" target="G7ZctmOGvD5jez6X7ehJ-22" edge="1">
          <mxGeometry width="160" relative="1" as="geometry">
            <mxPoint x="-530" y="1455" as="sourcePoint" />
            <mxPoint x="-440" y="1455" as="targetPoint" />
          </mxGeometry>
        </mxCell>
        <mxCell id="G7ZctmOGvD5jez6X7ehJ-26" value="" style="endArrow=block;dashed=1;endFill=0;endSize=12;html=1;rounded=0;" parent="1" source="bsRdrqoQIyki98Pr8Une-4" target="G7ZctmOGvD5jez6X7ehJ-23" edge="1">
          <mxGeometry width="160" relative="1" as="geometry">
            <mxPoint x="-530" y="1360" as="sourcePoint" />
            <mxPoint x="-440" y="1495" as="targetPoint" />
          </mxGeometry>
        </mxCell>
        <mxCell id="G7ZctmOGvD5jez6X7ehJ-27" value="" style="endArrow=block;dashed=1;endFill=0;endSize=12;html=1;rounded=0;" parent="1" source="bsRdrqoQIyki98Pr8Une-18" target="G7ZctmOGvD5jez6X7ehJ-21" edge="1">
          <mxGeometry width="160" relative="1" as="geometry">
            <mxPoint x="-492" y="1144" as="sourcePoint" />
            <mxPoint x="-394" y="1430" as="targetPoint" />
          </mxGeometry>
        </mxCell>
        <mxCell id="G7ZctmOGvD5jez6X7ehJ-28" value="" style="endArrow=block;dashed=1;endFill=0;endSize=12;html=1;rounded=0;" parent="1" source="bsRdrqoQIyki98Pr8Une-18" target="G7ZctmOGvD5jez6X7ehJ-23" edge="1">
          <mxGeometry width="160" relative="1" as="geometry">
            <mxPoint x="50" y="1516" as="sourcePoint" />
            <mxPoint x="-330" y="1463" as="targetPoint" />
          </mxGeometry>
        </mxCell>
        <mxCell id="G7ZctmOGvD5jez6X7ehJ-29" value="" style="endArrow=block;dashed=1;endFill=0;endSize=12;html=1;rounded=0;" parent="1" source="bsRdrqoQIyki98Pr8Une-18" target="G7ZctmOGvD5jez6X7ehJ-22" edge="1">
          <mxGeometry width="160" relative="1" as="geometry">
            <mxPoint x="50" y="1518" as="sourcePoint" />
            <mxPoint x="-450" y="1461" as="targetPoint" />
          </mxGeometry>
        </mxCell>
        <mxCell id="G7ZctmOGvD5jez6X7ehJ-40" value="Extends" style="endArrow=block;endSize=16;endFill=0;html=1;rounded=0;" parent="1" source="bsRdrqoQIyki98Pr8Une-4" target="bsRdrqoQIyki98Pr8Une-12" edge="1">
          <mxGeometry width="160" relative="1" as="geometry">
            <mxPoint x="-250" y="1080" as="sourcePoint" />
            <mxPoint x="-90" y="1080" as="targetPoint" />
          </mxGeometry>
        </mxCell>
        <mxCell id="G7ZctmOGvD5jez6X7ehJ-41" value="Extends" style="endArrow=block;endSize=16;endFill=0;html=1;rounded=0;" parent="1" source="bsRdrqoQIyki98Pr8Une-8" target="bsRdrqoQIyki98Pr8Une-12" edge="1">
          <mxGeometry width="160" relative="1" as="geometry">
            <mxPoint x="-440" y="1022" as="sourcePoint" />
            <mxPoint x="-140" y="873" as="targetPoint" />
          </mxGeometry>
        </mxCell>
        <mxCell id="UxZZDdhxiffH_w0Zif0F-1" value="«interface»&lt;br&gt;&lt;b&gt;Borrower&lt;/b&gt;" style="html=1;whiteSpace=wrap;" parent="1" vertex="1">
          <mxGeometry y="1390" width="110" height="50" as="geometry" />
        </mxCell>
        <mxCell id="UxZZDdhxiffH_w0Zif0F-2" value="«interface»&lt;br&gt;&lt;b&gt;Creator&lt;/b&gt;" style="html=1;whiteSpace=wrap;" parent="1" vertex="1">
          <mxGeometry x="-130" y="1390" width="110" height="50" as="geometry" />
        </mxCell>
        <mxCell id="UxZZDdhxiffH_w0Zif0F-3" value="«interface»&lt;br&gt;&lt;b&gt;Deletor&lt;/b&gt;" style="html=1;whiteSpace=wrap;" parent="1" vertex="1">
          <mxGeometry x="-260" y="1390" width="110" height="50" as="geometry" />
        </mxCell>
        <mxCell id="UxZZDdhxiffH_w0Zif0F-4" value="«interface»&lt;br&gt;&lt;b&gt;Editor&lt;/b&gt;" style="html=1;whiteSpace=wrap;" parent="1" vertex="1">
          <mxGeometry x="-390" y="1390" width="110" height="50" as="geometry" />
        </mxCell>
        <mxCell id="UxZZDdhxiffH_w0Zif0F-5" value="" style="endArrow=block;dashed=1;endFill=0;endSize=12;html=1;rounded=0;" parent="1" source="bsRdrqoQIyki98Pr8Une-4" target="bsRdrqoQIyki98Pr8Une-25" edge="1">
          <mxGeometry width="160" relative="1" as="geometry">
            <mxPoint x="-415" y="1154" as="sourcePoint" />
            <mxPoint x="-100" y="1390" as="targetPoint" />
          </mxGeometry>
        </mxCell>
        <mxCell id="UxZZDdhxiffH_w0Zif0F-7" value="Use" style="endArrow=open;endSize=12;dashed=1;html=1;rounded=0;" parent="1" source="UxZZDdhxiffH_w0Zif0F-4" target="G7ZctmOGvD5jez6X7ehJ-22" edge="1">
          <mxGeometry width="160" relative="1" as="geometry">
            <mxPoint x="-380" y="1490" as="sourcePoint" />
            <mxPoint x="-220" y="1490" as="targetPoint" />
          </mxGeometry>
        </mxCell>
        <mxCell id="UxZZDdhxiffH_w0Zif0F-8" value="Use" style="endArrow=open;endSize=12;dashed=1;html=1;rounded=0;" parent="1" source="UxZZDdhxiffH_w0Zif0F-3" target="G7ZctmOGvD5jez6X7ehJ-23" edge="1">
          <mxGeometry width="160" relative="1" as="geometry">
            <mxPoint x="-325" y="1450" as="sourcePoint" />
            <mxPoint x="-325" y="1540" as="targetPoint" />
          </mxGeometry>
        </mxCell>
        <mxCell id="UxZZDdhxiffH_w0Zif0F-9" value="Use" style="endArrow=open;endSize=12;dashed=1;html=1;rounded=0;" parent="1" source="UxZZDdhxiffH_w0Zif0F-2" target="G7ZctmOGvD5jez6X7ehJ-21" edge="1">
          <mxGeometry width="160" relative="1" as="geometry">
            <mxPoint x="-193" y="1450" as="sourcePoint" />
            <mxPoint x="-187" y="1540" as="targetPoint" />
          </mxGeometry>
        </mxCell>
        <mxCell id="UxZZDdhxiffH_w0Zif0F-10" value="Use" style="endArrow=open;endSize=12;dashed=1;html=1;rounded=0;" parent="1" source="UxZZDdhxiffH_w0Zif0F-1" target="bsRdrqoQIyki98Pr8Une-25" edge="1">
          <mxGeometry width="160" relative="1" as="geometry">
            <mxPoint x="-63" y="1450" as="sourcePoint" />
            <mxPoint x="-57" y="1550" as="targetPoint" />
          </mxGeometry>
        </mxCell>
        <mxCell id="UxZZDdhxiffH_w0Zif0F-11" value="«interface»&lt;br&gt;&lt;b&gt;Acceptror&lt;/b&gt;" style="html=1;whiteSpace=wrap;" parent="1" vertex="1">
          <mxGeometry x="280" y="1390" width="110" height="50" as="geometry" />
        </mxCell>
        <mxCell id="UxZZDdhxiffH_w0Zif0F-12" value="«interface»&lt;br&gt;&lt;b&gt;Acceptable&lt;/b&gt;" style="html=1;whiteSpace=wrap;" parent="1" vertex="1">
          <mxGeometry x="280" y="1530" width="110" height="50" as="geometry" />
        </mxCell>
        <mxCell id="UxZZDdhxiffH_w0Zif0F-13" value="Use" style="endArrow=open;endSize=12;dashed=1;html=1;rounded=0;" parent="1" source="UxZZDdhxiffH_w0Zif0F-11" target="UxZZDdhxiffH_w0Zif0F-12" edge="1">
          <mxGeometry width="160" relative="1" as="geometry">
            <mxPoint x="315" y="1390" as="sourcePoint" />
            <mxPoint x="315" y="1480" as="targetPoint" />
          </mxGeometry>
        </mxCell>
        <mxCell id="UxZZDdhxiffH_w0Zif0F-14" value="«interface»&lt;br&gt;&lt;b&gt;Requestor&lt;/b&gt;" style="html=1;whiteSpace=wrap;" parent="1" vertex="1">
          <mxGeometry x="140" y="1390" width="110" height="50" as="geometry" />
        </mxCell>
        <mxCell id="UxZZDdhxiffH_w0Zif0F-15" value="«interface»&lt;br&gt;&lt;b&gt;Requestable&lt;/b&gt;" style="html=1;whiteSpace=wrap;" parent="1" vertex="1">
          <mxGeometry x="140" y="1530" width="110" height="50" as="geometry" />
        </mxCell>
        <mxCell id="UxZZDdhxiffH_w0Zif0F-18" value="Use" style="endArrow=open;endSize=12;dashed=1;html=1;rounded=0;" parent="1" source="UxZZDdhxiffH_w0Zif0F-14" target="UxZZDdhxiffH_w0Zif0F-15" edge="1">
          <mxGeometry width="160" relative="1" as="geometry">
            <mxPoint x="205" y="1450" as="sourcePoint" />
            <mxPoint x="205" y="1540" as="targetPoint" />
          </mxGeometry>
        </mxCell>
        <mxCell id="UxZZDdhxiffH_w0Zif0F-19" value="" style="endArrow=block;dashed=1;endFill=0;endSize=12;html=1;rounded=0;" parent="1" source="bsRdrqoQIyki98Pr8Une-8" target="UxZZDdhxiffH_w0Zif0F-11" edge="1">
          <mxGeometry width="160" relative="1" as="geometry">
            <mxPoint x="-415" y="1140" as="sourcePoint" />
            <mxPoint x="23" y="1400" as="targetPoint" />
          </mxGeometry>
        </mxCell>
        <mxCell id="UxZZDdhxiffH_w0Zif0F-21" value="" style="endArrow=block;dashed=1;endFill=0;endSize=12;html=1;rounded=0;" parent="1" source="bsRdrqoQIyki98Pr8Une-4" target="UxZZDdhxiffH_w0Zif0F-14" edge="1">
          <mxGeometry width="160" relative="1" as="geometry">
            <mxPoint x="-9" y="1090" as="sourcePoint" />
            <mxPoint x="319" y="1400" as="targetPoint" />
          </mxGeometry>
        </mxCell>
        <mxCell id="UxZZDdhxiffH_w0Zif0F-22" value="" style="endArrow=block;dashed=1;endFill=0;endSize=12;html=1;rounded=0;" parent="1" source="bsRdrqoQIyki98Pr8Une-8" target="UxZZDdhxiffH_w0Zif0F-2" edge="1">
          <mxGeometry width="160" relative="1" as="geometry">
            <mxPoint x="276" y="1174" as="sourcePoint" />
            <mxPoint x="338" y="1400" as="targetPoint" />
          </mxGeometry>
        </mxCell>
        <mxCell id="UxZZDdhxiffH_w0Zif0F-23" value="" style="endArrow=block;dashed=1;endFill=0;endSize=12;html=1;rounded=0;" parent="1" source="bsRdrqoQIyki98Pr8Une-8" target="UxZZDdhxiffH_w0Zif0F-3" edge="1">
          <mxGeometry width="160" relative="1" as="geometry">
            <mxPoint x="164" y="1174" as="sourcePoint" />
            <mxPoint x="-42" y="1400" as="targetPoint" />
          </mxGeometry>
        </mxCell>
        <mxCell id="UxZZDdhxiffH_w0Zif0F-24" value="" style="endArrow=block;dashed=1;endFill=0;endSize=12;html=1;rounded=0;" parent="1" source="bsRdrqoQIyki98Pr8Une-8" target="UxZZDdhxiffH_w0Zif0F-4" edge="1">
          <mxGeometry width="160" relative="1" as="geometry">
            <mxPoint x="128" y="1174" as="sourcePoint" />
            <mxPoint x="-163" y="1400" as="targetPoint" />
          </mxGeometry>
        </mxCell>
        <mxCell id="ekgnCPpDS0l8y5VPsCR7-5" style="rounded=0;orthogonalLoop=1;jettySize=auto;html=1;exitX=0.5;exitY=0;exitDx=0;exitDy=0;" edge="1" parent="1" source="huLvErs1DPyE6HO1u9oY-6" target="ekgnCPpDS0l8y5VPsCR7-4">
          <mxGeometry relative="1" as="geometry" />
        </mxCell>
        <mxCell id="huLvErs1DPyE6HO1u9oY-6" value="&amp;lt;&amp;lt;interface&amp;gt;&amp;gt;&lt;br&gt;HumanTypes" style="html=1;whiteSpace=wrap;" parent="1" vertex="1">
          <mxGeometry x="210" y="780" width="120" height="60" as="geometry" />
        </mxCell>
        <mxCell id="huLvErs1DPyE6HO1u9oY-7" style="edgeStyle=orthogonalEdgeStyle;rounded=0;orthogonalLoop=1;jettySize=auto;html=1;" parent="1" target="huLvErs1DPyE6HO1u9oY-6" edge="1">
          <mxGeometry relative="1" as="geometry">
            <mxPoint x="55" y="883" as="sourcePoint" />
          </mxGeometry>
        </mxCell>
        <mxCell id="huLvErs1DPyE6HO1u9oY-9" style="edgeStyle=orthogonalEdgeStyle;rounded=0;orthogonalLoop=1;jettySize=auto;html=1;exitX=1;exitY=0.5;exitDx=0;exitDy=0;" parent="1" source="huLvErs1DPyE6HO1u9oY-5" target="ekgnCPpDS0l8y5VPsCR7-13" edge="1">
          <mxGeometry relative="1" as="geometry">
            <mxPoint x="90" y="830" as="sourcePoint" />
          </mxGeometry>
        </mxCell>
        <mxCell id="ekgnCPpDS0l8y5VPsCR7-10" style="rounded=0;orthogonalLoop=1;jettySize=auto;html=1;" edge="1" parent="1" source="ekgnCPpDS0l8y5VPsCR7-13" target="ekgnCPpDS0l8y5VPsCR7-8">
          <mxGeometry relative="1" as="geometry" />
        </mxCell>
        <mxCell id="O-NyD26Ba-2kZrWU9cd6-16" style="edgeStyle=orthogonalEdgeStyle;rounded=0;orthogonalLoop=1;jettySize=auto;html=1;exitX=0;exitY=0.5;exitDx=0;exitDy=0;" parent="1" source="huLvErs1DPyE6HO1u9oY-17" target="O-NyD26Ba-2kZrWU9cd6-15" edge="1">
          <mxGeometry relative="1" as="geometry" />
        </mxCell>
        <mxCell id="huLvErs1DPyE6HO1u9oY-17" value="&amp;lt;&amp;lt;Enum&amp;gt;&amp;gt;&lt;br&gt;BookCatigory" style="rounded=1;whiteSpace=wrap;html=1;" parent="1" vertex="1">
          <mxGeometry x="-460" y="1860" width="120" height="60" as="geometry" />
        </mxCell>
        <mxCell id="huLvErs1DPyE6HO1u9oY-18" style="edgeStyle=orthogonalEdgeStyle;rounded=0;orthogonalLoop=1;jettySize=auto;html=1;exitX=0;exitY=0.5;exitDx=0;exitDy=0;" parent="1" source="huLvErs1DPyE6HO1u9oY-16" target="huLvErs1DPyE6HO1u9oY-17" edge="1">
          <mxGeometry relative="1" as="geometry" />
        </mxCell>
        <mxCell id="huLvErs1DPyE6HO1u9oY-22" value="&amp;lt;&amp;lt;Interface&amp;gt;&amp;gt;&lt;br&gt;BookState" style="rounded=1;whiteSpace=wrap;html=1;" parent="1" vertex="1">
          <mxGeometry x="-460" y="1938" width="120" height="60" as="geometry" />
        </mxCell>
        <mxCell id="huLvErs1DPyE6HO1u9oY-23" style="edgeStyle=orthogonalEdgeStyle;rounded=0;orthogonalLoop=1;jettySize=auto;html=1;exitX=0;exitY=0.5;exitDx=0;exitDy=0;" parent="1" source="huLvErs1DPyE6HO1u9oY-21" target="huLvErs1DPyE6HO1u9oY-22" edge="1">
          <mxGeometry relative="1" as="geometry">
            <mxPoint x="-305" y="1970" as="sourcePoint" />
          </mxGeometry>
        </mxCell>
        <mxCell id="huLvErs1DPyE6HO1u9oY-55" value="&amp;lt;&amp;lt;Interface&amp;gt;&amp;gt;&lt;br&gt;RequestState" style="rounded=1;whiteSpace=wrap;html=1;" parent="1" vertex="1">
          <mxGeometry x="470" y="1665" width="120" height="60" as="geometry" />
        </mxCell>
        <mxCell id="O-NyD26Ba-2kZrWU9cd6-1" value="Request" style="swimlane;fontStyle=1;align=center;verticalAlign=top;childLayout=stackLayout;horizontal=1;startSize=26;horizontalStack=0;resizeParent=1;resizeParentMax=0;resizeLast=0;collapsible=1;marginBottom=0;whiteSpace=wrap;html=1;" parent="1" vertex="1">
          <mxGeometry x="140" y="1656" width="160" height="86" as="geometry" />
        </mxCell>
        <mxCell id="O-NyD26Ba-2kZrWU9cd6-2" value="+ state: RequestState" style="text;strokeColor=none;fillColor=none;align=left;verticalAlign=top;spacingLeft=4;spacingRight=4;overflow=hidden;rotatable=0;points=[[0,0.5],[1,0.5]];portConstraint=eastwest;whiteSpace=wrap;html=1;" parent="O-NyD26Ba-2kZrWU9cd6-1" vertex="1">
          <mxGeometry y="26" width="160" height="26" as="geometry" />
        </mxCell>
        <mxCell id="O-NyD26Ba-2kZrWU9cd6-3" value="" style="line;strokeWidth=1;fillColor=none;align=left;verticalAlign=middle;spacingTop=-1;spacingLeft=3;spacingRight=3;rotatable=0;labelPosition=right;points=[];portConstraint=eastwest;strokeColor=inherit;" parent="O-NyD26Ba-2kZrWU9cd6-1" vertex="1">
          <mxGeometry y="52" width="160" height="8" as="geometry" />
        </mxCell>
        <mxCell id="O-NyD26Ba-2kZrWU9cd6-4" value="+ method(type): type" style="text;strokeColor=none;fillColor=none;align=left;verticalAlign=top;spacingLeft=4;spacingRight=4;overflow=hidden;rotatable=0;points=[[0,0.5],[1,0.5]];portConstraint=eastwest;whiteSpace=wrap;html=1;" parent="O-NyD26Ba-2kZrWU9cd6-1" vertex="1">
          <mxGeometry y="60" width="160" height="26" as="geometry" />
        </mxCell>
        <mxCell id="O-NyD26Ba-2kZrWU9cd6-5" style="edgeStyle=orthogonalEdgeStyle;rounded=0;orthogonalLoop=1;jettySize=auto;html=1;exitX=1;exitY=0.5;exitDx=0;exitDy=0;" parent="1" source="O-NyD26Ba-2kZrWU9cd6-2" target="huLvErs1DPyE6HO1u9oY-55" edge="1">
          <mxGeometry relative="1" as="geometry" />
        </mxCell>
        <mxCell id="O-NyD26Ba-2kZrWU9cd6-6" value="Extends" style="endArrow=block;endSize=16;endFill=0;html=1;rounded=0;" parent="1" source="bsRdrqoQIyki98Pr8Une-49" target="O-NyD26Ba-2kZrWU9cd6-1" edge="1">
          <mxGeometry width="160" relative="1" as="geometry">
            <mxPoint x="250" y="1780" as="sourcePoint" />
            <mxPoint x="410" y="1780" as="targetPoint" />
          </mxGeometry>
        </mxCell>
        <mxCell id="O-NyD26Ba-2kZrWU9cd6-7" value="Extends" style="endArrow=block;endSize=16;endFill=0;html=1;rounded=0;" parent="1" source="bsRdrqoQIyki98Pr8Une-53" target="O-NyD26Ba-2kZrWU9cd6-1" edge="1">
          <mxGeometry width="160" relative="1" as="geometry">
            <mxPoint x="190" y="1870" as="sourcePoint" />
            <mxPoint x="219" y="1752" as="targetPoint" />
          </mxGeometry>
        </mxCell>
        <mxCell id="O-NyD26Ba-2kZrWU9cd6-9" value="&lt;b&gt;Pending&lt;/b&gt; this is the initial state" style="rounded=0;whiteSpace=wrap;html=1;" parent="1" vertex="1">
          <mxGeometry x="650" y="1765" width="120" height="60" as="geometry" />
        </mxCell>
        <mxCell id="O-NyD26Ba-2kZrWU9cd6-11" value="Rejected" style="rounded=0;whiteSpace=wrap;html=1;" parent="1" vertex="1">
          <mxGeometry x="650" y="1610" width="120" height="60" as="geometry" />
        </mxCell>
        <mxCell id="O-NyD26Ba-2kZrWU9cd6-12" value="" style="endArrow=block;dashed=1;endFill=0;endSize=12;html=1;rounded=0;" parent="1" source="O-NyD26Ba-2kZrWU9cd6-9" target="huLvErs1DPyE6HO1u9oY-55" edge="1">
          <mxGeometry width="160" relative="1" as="geometry">
            <mxPoint x="610.0741464120371" y="1790" as="sourcePoint" />
            <mxPoint x="48" y="1590" as="targetPoint" />
          </mxGeometry>
        </mxCell>
        <mxCell id="O-NyD26Ba-2kZrWU9cd6-14" value="" style="endArrow=block;dashed=1;endFill=0;endSize=12;html=1;rounded=0;" parent="1" source="O-NyD26Ba-2kZrWU9cd6-11" target="huLvErs1DPyE6HO1u9oY-55" edge="1">
          <mxGeometry width="160" relative="1" as="geometry">
            <mxPoint x="845" y="1759" as="sourcePoint" />
            <mxPoint x="600" y="1716" as="targetPoint" />
          </mxGeometry>
        </mxCell>
        <mxCell id="O-NyD26Ba-2kZrWU9cd6-13" value="" style="endArrow=block;dashed=1;endFill=0;endSize=12;html=1;rounded=0;" parent="1" source="O-NyD26Ba-2kZrWU9cd6-10" target="huLvErs1DPyE6HO1u9oY-55" edge="1">
          <mxGeometry width="160" relative="1" as="geometry">
            <mxPoint x="710" y="1753" as="sourcePoint" />
            <mxPoint x="600" y="1722" as="targetPoint" />
          </mxGeometry>
        </mxCell>
        <mxCell id="O-NyD26Ba-2kZrWU9cd6-10" value="Approved" style="rounded=0;whiteSpace=wrap;html=1;" parent="1" vertex="1">
          <mxGeometry x="650" y="1687" width="120" height="60" as="geometry" />
        </mxCell>
        <mxCell id="O-NyD26Ba-2kZrWU9cd6-15" value="Action, DRAMA, SIENCE, FICTION, FANTAZY" style="rounded=0;whiteSpace=wrap;html=1;" parent="1" vertex="1">
          <mxGeometry x="-720" y="1854" width="120" height="60" as="geometry" />
        </mxCell>
        <mxCell id="O-NyD26Ba-2kZrWU9cd6-18" value="Available this is the initial state" style="rounded=0;whiteSpace=wrap;html=1;" parent="1" vertex="1">
          <mxGeometry x="-400" y="2060" width="120" height="60" as="geometry" />
        </mxCell>
        <mxCell id="O-NyD26Ba-2kZrWU9cd6-19" value="Borrowed" style="rounded=0;whiteSpace=wrap;html=1;" parent="1" vertex="1">
          <mxGeometry x="-530" y="2060" width="120" height="60" as="geometry" />
        </mxCell>
        <mxCell id="O-NyD26Ba-2kZrWU9cd6-21" value="" style="endArrow=block;dashed=1;endFill=0;endSize=12;html=1;rounded=0;" parent="1" source="O-NyD26Ba-2kZrWU9cd6-18" target="huLvErs1DPyE6HO1u9oY-22" edge="1">
          <mxGeometry width="160" relative="1" as="geometry">
            <mxPoint x="-460" y="2050" as="sourcePoint" />
            <mxPoint x="-614.5238095238096" y="2023.9999999999995" as="targetPoint" />
          </mxGeometry>
        </mxCell>
        <mxCell id="O-NyD26Ba-2kZrWU9cd6-22" value="" style="endArrow=block;dashed=1;endFill=0;endSize=12;html=1;rounded=0;" parent="1" source="O-NyD26Ba-2kZrWU9cd6-19" target="huLvErs1DPyE6HO1u9oY-22" edge="1">
          <mxGeometry width="160" relative="1" as="geometry">
            <mxPoint x="-570" y="2100" as="sourcePoint" />
            <mxPoint x="-645.4761904761904" y="2023.9999999999995" as="targetPoint" />
          </mxGeometry>
        </mxCell>
        <mxCell id="ekgnCPpDS0l8y5VPsCR7-2" value="Admin" style="rounded=0;whiteSpace=wrap;html=1;" vertex="1" parent="1">
          <mxGeometry x="250" y="650" width="120" height="60" as="geometry" />
        </mxCell>
        <mxCell id="ekgnCPpDS0l8y5VPsCR7-3" value="User" style="rounded=0;whiteSpace=wrap;html=1;" vertex="1" parent="1">
          <mxGeometry x="380" y="650" width="120" height="60" as="geometry" />
        </mxCell>
        <mxCell id="ekgnCPpDS0l8y5VPsCR7-4" value="NewUser" style="rounded=0;whiteSpace=wrap;html=1;" vertex="1" parent="1">
          <mxGeometry x="120" y="650" width="120" height="60" as="geometry" />
        </mxCell>
        <mxCell id="ekgnCPpDS0l8y5VPsCR7-6" style="rounded=0;orthogonalLoop=1;jettySize=auto;html=1;" edge="1" parent="1" source="huLvErs1DPyE6HO1u9oY-6" target="ekgnCPpDS0l8y5VPsCR7-2">
          <mxGeometry relative="1" as="geometry">
            <mxPoint x="280" y="790" as="sourcePoint" />
            <mxPoint x="190" y="720" as="targetPoint" />
          </mxGeometry>
        </mxCell>
        <mxCell id="ekgnCPpDS0l8y5VPsCR7-7" style="rounded=0;orthogonalLoop=1;jettySize=auto;html=1;" edge="1" parent="1" source="huLvErs1DPyE6HO1u9oY-6" target="ekgnCPpDS0l8y5VPsCR7-3">
          <mxGeometry relative="1" as="geometry">
            <mxPoint x="280" y="790" as="sourcePoint" />
            <mxPoint x="320" y="720" as="targetPoint" />
          </mxGeometry>
        </mxCell>
        <mxCell id="ekgnCPpDS0l8y5VPsCR7-8" value="Active" style="rounded=0;whiteSpace=wrap;html=1;" vertex="1" parent="1">
          <mxGeometry x="540" y="800" width="120" height="60" as="geometry" />
        </mxCell>
        <mxCell id="ekgnCPpDS0l8y5VPsCR7-9" value="InActive this is the initial value" style="rounded=0;whiteSpace=wrap;html=1;" vertex="1" parent="1">
          <mxGeometry x="540" y="872" width="120" height="60" as="geometry" />
        </mxCell>
        <mxCell id="ekgnCPpDS0l8y5VPsCR7-11" style="rounded=0;orthogonalLoop=1;jettySize=auto;html=1;" edge="1" parent="1" source="ekgnCPpDS0l8y5VPsCR7-13" target="ekgnCPpDS0l8y5VPsCR7-9">
          <mxGeometry relative="1" as="geometry">
            <mxPoint x="470" y="820" as="sourcePoint" />
            <mxPoint x="550" y="806" as="targetPoint" />
          </mxGeometry>
        </mxCell>
        <mxCell id="ekgnCPpDS0l8y5VPsCR7-13" value="«interface»&lt;br&gt;&lt;b&gt;HumanStates&lt;/b&gt;" style="html=1;whiteSpace=wrap;" vertex="1" parent="1">
          <mxGeometry x="385" y="872" width="110" height="50" as="geometry" />
        </mxCell>
        <mxCell id="ekgnCPpDS0l8y5VPsCR7-14" value="context: Human&lt;br&gt;inv: email.isValide() == true" style="shape=note2;boundedLbl=1;whiteSpace=wrap;html=1;size=25;verticalAlign=top;align=center;" vertex="1" parent="1">
          <mxGeometry x="-370" y="750" width="150" height="80" as="geometry" />
        </mxCell>
        <mxCell id="bsRdrqoQIyki98Pr8Une-12" value="Human" style="swimlane;fontStyle=1;align=center;verticalAlign=top;childLayout=stackLayout;horizontal=1;startSize=26;horizontalStack=0;resizeParent=1;resizeParentMax=0;resizeLast=0;collapsible=1;marginBottom=0;whiteSpace=wrap;html=1;" parent="1" vertex="1">
          <mxGeometry x="-105" y="740" width="160" height="216" as="geometry" />
        </mxCell>
        <mxCell id="bsRdrqoQIyki98Pr8Une-13" value="+ name: String" style="text;strokeColor=none;fillColor=none;align=left;verticalAlign=top;spacingLeft=4;spacingRight=4;overflow=hidden;rotatable=0;points=[[0,0.5],[1,0.5]];portConstraint=eastwest;whiteSpace=wrap;html=1;" parent="bsRdrqoQIyki98Pr8Une-12" vertex="1">
          <mxGeometry y="26" width="160" height="26" as="geometry" />
        </mxCell>
        <mxCell id="huLvErs1DPyE6HO1u9oY-1" value="+ email: String" style="text;strokeColor=none;fillColor=none;align=left;verticalAlign=top;spacingLeft=4;spacingRight=4;overflow=hidden;rotatable=0;points=[[0,0.5],[1,0.5]];portConstraint=eastwest;whiteSpace=wrap;html=1;" parent="bsRdrqoQIyki98Pr8Une-12" vertex="1">
          <mxGeometry y="52" width="160" height="26" as="geometry" />
        </mxCell>
        <mxCell id="huLvErs1DPyE6HO1u9oY-4" value="+ password: String" style="text;strokeColor=none;fillColor=none;align=left;verticalAlign=top;spacingLeft=4;spacingRight=4;overflow=hidden;rotatable=0;points=[[0,0.5],[1,0.5]];portConstraint=eastwest;whiteSpace=wrap;html=1;" parent="bsRdrqoQIyki98Pr8Une-12" vertex="1">
          <mxGeometry y="78" width="160" height="26" as="geometry" />
        </mxCell>
        <mxCell id="huLvErs1DPyE6HO1u9oY-2" value="+ phone: String" style="text;strokeColor=none;fillColor=none;align=left;verticalAlign=top;spacingLeft=4;spacingRight=4;overflow=hidden;rotatable=0;points=[[0,0.5],[1,0.5]];portConstraint=eastwest;whiteSpace=wrap;html=1;" parent="bsRdrqoQIyki98Pr8Une-12" vertex="1">
          <mxGeometry y="104" width="160" height="26" as="geometry" />
        </mxCell>
        <mxCell id="huLvErs1DPyE6HO1u9oY-3" value="+ type: HumanType" style="text;strokeColor=none;fillColor=none;align=left;verticalAlign=top;spacingLeft=4;spacingRight=4;overflow=hidden;rotatable=0;points=[[0,0.5],[1,0.5]];portConstraint=eastwest;whiteSpace=wrap;html=1;" parent="bsRdrqoQIyki98Pr8Une-12" vertex="1">
          <mxGeometry y="130" width="160" height="26" as="geometry" />
        </mxCell>
        <mxCell id="huLvErs1DPyE6HO1u9oY-5" value="+ state: HumanState" style="text;strokeColor=none;fillColor=none;align=left;verticalAlign=top;spacingLeft=4;spacingRight=4;overflow=hidden;rotatable=0;points=[[0,0.5],[1,0.5]];portConstraint=eastwest;whiteSpace=wrap;html=1;" parent="bsRdrqoQIyki98Pr8Une-12" vertex="1">
          <mxGeometry y="156" width="160" height="26" as="geometry" />
        </mxCell>
        <mxCell id="bsRdrqoQIyki98Pr8Une-14" value="" style="line;strokeWidth=1;fillColor=none;align=left;verticalAlign=middle;spacingTop=-1;spacingLeft=3;spacingRight=3;rotatable=0;labelPosition=right;points=[];portConstraint=eastwest;strokeColor=inherit;" parent="bsRdrqoQIyki98Pr8Une-12" vertex="1">
          <mxGeometry y="182" width="160" height="8" as="geometry" />
        </mxCell>
        <mxCell id="bsRdrqoQIyki98Pr8Une-15" value="+ method(type): type" style="text;strokeColor=none;fillColor=none;align=left;verticalAlign=top;spacingLeft=4;spacingRight=4;overflow=hidden;rotatable=0;points=[[0,0.5],[1,0.5]];portConstraint=eastwest;whiteSpace=wrap;html=1;" parent="bsRdrqoQIyki98Pr8Une-12" vertex="1">
          <mxGeometry y="190" width="160" height="26" as="geometry" />
        </mxCell>
      </root>
    </mxGraphModel>
  </diagram>
</mxfile>
